<?xml version="1.0" encoding="utf-8"?>
<!-- Generator: Adobe Illustrator 16.0.0, SVG Export Plug-In . SVG Version: 6.00 Build 0)  -->
<!DOCTYPE svg PUBLIC "-//W3C//DTD SVG 1.1//EN" "http://www.w3.org/Graphics/SVG/1.1/DTD/svg11.dtd">
<svg version="1.1" id="Layer_1" xmlns="http://www.w3.org/2000/svg" xmlns:xlink="http://www.w3.org/1999/xlink" x="0px" y="0px"
	 width="1228.5px" height="351px" viewBox="0 0 1228.5 351" enable-background="new 0 0 1228.5 351" xml:space="preserve">
<filter  height="200%" width="200%" y="-50%" x="-50%" filterUnits="objectBoundingBox" id="filter-4">
	<feGaussianBlur  result="shadowBlurInner1" in="SourceAlpha" stdDeviation="3.5"></feGaussianBlur>
	<feOffset  result="shadowOffsetInner1" in="shadowBlurInner1" dy="-9" dx="1"></feOffset>
	<feComposite  result="shadowInnerInner1" in="shadowOffsetInner1" k3="1" operator="arithmetic" in2="SourceAlpha" k2="-1">
		</feComposite>
	<feColorMatrix  type="matrix" in="shadowInnerInner1" values="0 0 0 0 0   0 0 0 0 0   0 0 0 0 0  0 0 0 0.09 0"></feColorMatrix>
</filter>
<filter  height="200%" width="200%" y="-50%" x="-50%" filterUnits="objectBoundingBox" id="filter-2">
	<feGaussianBlur  result="shadowBlurInner1" in="SourceAlpha" stdDeviation="17.5"></feGaussianBlur>
	<feOffset  result="shadowOffsetInner1" in="shadowBlurInner1" dy="0" dx="0"></feOffset>
	<feComposite  result="shadowInnerInner1" in="shadowOffsetInner1" k3="1" operator="arithmetic" in2="SourceAlpha" k2="-1">
		</feComposite>
	<feColorMatrix  type="matrix" in="shadowInnerInner1" values="0 0 0 0 0   0 0 0 0 0   0 0 0 0 0  0 0 0 0.06 0"></feColorMatrix>
</filter>
<g>
	<path fill="#FFC24A" d="M0,282.998l2.123-2.973L102.527,89.512l0.212-2.017L58.479,4.358c-3.708-6.964-14.148-5.204-15.365,2.592
		L0,282.998z"/>
	<g>
		<g>
			<path id="path-1" fill="#FFA712" d="M1.253,280.731l1.605-3.13l99.353-188.518L58.062,5.608
				c-3.669-6.892-12.987-5.135-14.191,2.58L1.253,280.731z"/>
		</g>
		<g filter="url(#filter-2)">
			<path id="path-1_2_" d="M1.253,280.731l1.605-3.13l99.353-188.518L58.062,5.608c-3.669-6.892-12.987-5.135-14.191,2.58
				L1.253,280.731z"/>
		</g>
	</g>
	<path fill="#F4BD62" d="M135.005,150.381l32.955-33.751l-32.964-62.93c-3.13-5.957-11.867-5.974-14.963,0l-17.612,33.589v2.861
		L135.005,150.381z"/>
	<g>
		<g>
			<path id="path-3" fill="#FFA50E" d="M134.417,148.974l32.038-32.812l-32.038-61.007c-3.042-5.791-10.433-6.398-13.443-0.59
				l-17.705,34.109l-0.529,1.744L134.417,148.974z"/>
		</g>
		<g filter="url(#filter-4)">
			<path id="path-3_2_" d="M134.417,148.974l32.038-32.812l-32.038-61.007c-3.042-5.791-10.433-6.398-13.443-0.59l-17.705,34.109
				l-0.529,1.744L134.417,148.974z"/>
		</g>
	</g>
	<polygon fill="#F6820C" points="0,282.998 0.962,282.03 4.458,280.609 132.936,152.609 134.562,148.179 102.513,87.105 	"/>
	<path fill="#FDE068" d="M139.121,347.551l116.275-64.848L222.191,78.209c-1.039-6.398-8.888-8.928-13.467-4.34L0,282.998
		l115.608,64.548C122.915,351.625,131.812,351.627,139.121,347.551"/>
	<path fill="#FCCA3F" d="M254.354,282.16L221.402,79.218c-1.031-6.35-7.559-8.977-12.104-4.424L1.29,282.601l114.338,63.909
		c7.25,4.048,16.081,4.05,23.334,0.006L254.354,282.16z"/>
	<path fill="#EEAB37" d="M139.121,345.641c-7.309,4.076-16.207,4.074-23.513-0.006L0.931,282.015L0,282.998l115.608,64.548
		c7.306,4.079,16.204,4.081,23.513,0.005l116.275-64.848l-0.285-1.752L139.121,345.641z"/>
</g>
<g>
	<path fill="#63666A" d="M378.012,269.076h-22.638V92.899h102.853v21.652h-80.215v57.824h72.341v21.161h-72.341V269.076z"/>
	<path fill="#63666A" d="M497.898,118.242c-3.118,3.118-6.891,4.676-11.318,4.676c-4.43,0-8.205-1.558-11.318-4.676
		c-3.119-3.114-4.676-6.889-4.676-11.318c0-4.427,1.557-8.199,4.676-11.317c3.113-3.114,6.889-4.675,11.318-4.675
		c4.428,0,8.2,1.561,11.318,4.675c3.113,3.118,4.676,6.891,4.676,11.317C502.574,111.354,501.012,115.128,497.898,118.242z
		 M497.898,269.076h-22.637V148.509h22.637V269.076z"/>
	<path fill="#63666A" d="M546.756,269.076H524.12V148.509h21.653v19.685h0.982c2.297-6.559,7.015-11.972,14.15-16.239
		c7.134-4.265,14.063-6.398,20.791-6.398c6.725,0,12.384,0.983,16.979,2.953l-8.612,21.16c-2.953-1.146-6.975-1.721-12.058-1.721
		c-8.203,0-15.463,3.24-21.774,9.719c-6.317,6.481-9.476,14.971-9.476,25.468V269.076z"/>
	<path fill="#63666A" d="M658.204,273.014c-18.21,0-33.015-6.066-44.415-18.209c-11.402-12.136-17.101-27.473-17.101-46.012
		c0-17.55,5.535-32.641,16.608-45.274c11.072-12.631,25.222-18.946,42.446-18.946c17.877,0,32.19,5.824,42.937,17.47
		c10.741,11.649,16.116,27.231,16.116,46.751l-0.247,4.185h-95.224c0.654,12.141,4.715,21.736,12.18,28.788
		c7.463,7.055,16.198,10.581,26.206,10.581c16.239,0,27.229-6.891,32.972-20.669l20.177,8.364
		c-3.938,9.351-10.418,17.187-19.438,23.498C682.397,269.854,671.326,273.014,658.204,273.014z M690.683,194.276
		c-0.491-6.891-3.652-13.449-9.473-19.687c-5.824-6.23-14.479-9.35-25.96-9.35c-8.366,0-15.624,2.627-21.776,7.873
		c-6.15,5.254-10.377,12.305-12.671,21.163H690.683z"/>
	<path fill="#63666A" d="M796.719,273.014c-9.188,0-17.433-1.967-24.73-5.905c-7.299-3.936-12.754-8.857-16.362-14.762h-0.983
		v16.729h-21.653V92.899h22.637v55.609l-0.983,16.731h0.983c3.608-5.905,9.063-10.827,16.362-14.763
		c7.298-3.938,15.543-5.905,24.73-5.905c15.582,0,29.034,6.15,40.354,18.453c11.318,12.305,16.978,27.559,16.978,45.768
		s-5.659,33.464-16.978,45.768C825.753,266.862,812.301,273.014,796.719,273.014z M793.028,252.347
		c10.496,0,19.519-3.977,27.065-11.936c7.544-7.954,11.318-18.491,11.318-31.618c0-13.122-3.774-23.658-11.318-31.619
		c-7.547-7.954-16.569-11.934-27.065-11.934c-10.666,0-19.729,3.938-27.19,11.811c-7.467,7.875-11.195,18.457-11.195,31.742
		c0,13.288,3.729,23.868,11.195,31.741C773.3,248.408,782.362,252.347,793.028,252.347z"/>
	<path fill="#63666A" d="M913.68,273.014c-12.795,0-23.5-3.69-32.112-11.071c-8.61-7.382-12.917-17.141-12.917-29.281
		c0-13.122,5.083-23.415,15.255-30.881c10.17-7.463,22.719-11.196,37.646-11.196c13.288,0,24.195,2.461,32.727,7.382v-3.444
		c0-8.858-3.037-15.952-9.104-21.283c-6.07-5.33-13.533-7.998-22.391-7.998c-6.563,0-12.511,1.561-17.84,4.675
		c-5.331,3.118-8.981,7.382-10.949,12.795l-20.668-8.857c2.786-7.216,8.282-13.902,16.486-20.053
		c8.2-6.152,19.026-9.228,32.479-9.228c15.418,0,28.212,4.513,38.385,13.533c10.17,9.023,15.256,21.738,15.256,38.139v72.832
		h-21.653v-16.729h-0.983C944.272,266.124,931.065,273.014,913.68,273.014z M917.371,252.347c9.349,0,17.838-3.485,25.464-10.458
		c7.63-6.971,11.443-15.215,11.443-24.73c-6.396-5.247-15.993-7.873-28.789-7.873c-10.991,0-19.276,2.379-24.852,7.136
		c-5.579,4.761-8.366,10.334-8.366,16.732c0,5.905,2.541,10.579,7.629,14.025C904.982,250.622,910.807,252.347,917.371,252.347z"/>
	<path fill="#63666A" d="M1041.773,273.014c-13.451,0-24.566-3.282-33.34-9.841c-8.775-6.56-15.217-14.765-19.314-24.607
		l20.176-8.364c6.396,15.094,17.305,22.636,32.726,22.636c7.052,0,12.835-1.557,17.347-4.675c4.511-3.113,6.768-7.216,6.768-12.303
		c0-7.874-5.497-13.202-16.485-15.994l-24.36-5.905c-7.712-1.968-15.009-5.698-21.898-11.195
		c-6.891-5.494-10.336-12.918-10.336-22.27c0-10.66,4.715-19.314,14.149-25.958c9.431-6.644,20.627-9.965,33.587-9.965
		c10.66,0,20.176,2.422,28.542,7.257c8.367,4.841,14.353,11.773,17.964,20.792l-19.685,8.121
		c-4.43-10.662-13.62-15.993-27.56-15.993c-6.729,0-12.388,1.396-16.979,4.183c-4.594,2.792-6.888,6.562-6.888,11.318
		c0,6.89,5.327,11.564,15.993,14.026l23.867,5.657c11.318,2.627,19.686,7.138,25.098,13.534c5.413,6.397,8.12,13.618,8.12,21.653
		c0,10.827-4.43,19.852-13.287,27.066C1067.119,269.404,1055.716,273.014,1041.773,273.014z"/>
	<path fill="#63666A" d="M1162.322,273.014c-18.21,0-33.016-6.066-44.414-18.209c-11.404-12.136-17.101-27.473-17.101-46.012
		c0-17.55,5.535-32.641,16.608-45.274c11.072-12.631,25.222-18.946,42.445-18.946c17.878,0,32.19,5.824,42.938,17.47
		c10.74,11.649,16.115,27.231,16.115,46.751l-0.246,4.185h-95.224c0.653,12.141,4.713,21.736,12.18,28.788
		c7.463,7.055,16.197,10.581,26.205,10.581c16.239,0,27.229-6.891,32.972-20.669l20.178,8.364
		c-3.938,9.351-10.421,17.187-19.439,23.498C1186.516,269.854,1175.443,273.014,1162.322,273.014z M1194.801,194.276
		c-0.492-6.891-3.651-13.449-9.472-19.687c-5.824-6.23-14.48-9.35-25.962-9.35c-8.364,0-15.622,2.627-21.774,7.873
		c-6.151,5.254-10.378,12.305-12.672,21.163H1194.801z"/>
</g>
</svg>
